<svg width="122" height="33" viewBox="0 0 122 33" fill="none" xmlns="http://www.w3.org/2000/svg">
<path d="M62.6054 21.5789C62.771 21.5789 62.9118 21.5211 63.0277 21.4055C63.1436 21.2899 63.2016 21.1495 63.2016 20.9843C63.2016 20.8192 63.1436 20.6705 63.0277 20.5384C62.9118 20.4228 62.771 20.365 62.6054 20.365C62.4232 20.365 62.2742 20.4228 62.1582 20.5384C62.0423 20.6705 61.9844 20.8192 61.9844 20.9843C61.9844 21.1495 62.0423 21.2899 62.1582 21.4055C62.2742 21.5211 62.4232 21.5789 62.6054 21.5789Z" fill="#2D3A4A" stroke="#2D3A4A" stroke-width="0.2" stroke-miterlimit="10"/>
<path d="M64.3442 20.365C64.1786 20.365 64.0378 20.4228 63.9219 20.5384C63.806 20.6705 63.748 20.8192 63.748 20.9843C63.748 21.1495 63.806 21.2899 63.9219 21.4055C64.0378 21.5211 64.1786 21.5789 64.3442 21.5789C64.5098 21.5789 64.6506 21.5211 64.7665 21.4055C64.8824 21.2899 64.9404 21.1495 64.9404 20.9843C64.9404 20.8192 64.8824 20.6705 64.7665 20.5384C64.6506 20.4228 64.5098 20.365 64.3442 20.365Z" fill="#2D3A4A" stroke="#2D3A4A" stroke-width="0.2" stroke-miterlimit="10"/>
<path d="M4.99993 22.892C5.16554 22.892 5.30629 22.8342 5.42222 22.7186C5.53814 22.603 5.59612 22.4626 5.59612 22.2974C5.59612 22.1322 5.53814 21.9836 5.42222 21.8515C5.30629 21.7358 5.16554 21.678 4.99993 21.678C4.81776 21.678 4.66871 21.7358 4.55278 21.8515C4.43686 21.9836 4.37891 22.1322 4.37891 22.2974C4.37891 22.4626 4.43686 22.603 4.55278 22.7186C4.66871 22.8342 4.81776 22.892 4.99993 22.892Z" fill="#2D3A4A" stroke="#2D3A4A" stroke-width="0.2" stroke-miterlimit="10"/>
<path d="M13.2212 29.9776C13.0556 29.9776 12.9148 30.0437 12.7989 30.1758C12.683 30.2914 12.625 30.4318 12.625 30.597C12.625 30.7621 12.683 30.9025 12.7989 31.0181C12.9148 31.1338 13.0556 31.1916 13.2212 31.1916C13.4034 31.1916 13.5524 31.1338 13.6683 31.0181C13.7843 30.9025 13.8422 30.7621 13.8422 30.597C13.8422 30.4318 13.7843 30.2914 13.6683 30.1758C13.5524 30.0437 13.4034 29.9776 13.2212 29.9776Z" fill="#2D3A4A" stroke="#2D3A4A" stroke-width="0.2" stroke-miterlimit="10"/>
<path d="M11.4829 29.9776C11.3173 29.9776 11.1765 30.0437 11.0606 30.1758C10.9447 30.2914 10.8867 30.4318 10.8867 30.597C10.8867 30.7621 10.9447 30.9025 11.0606 31.0181C11.1765 31.1338 11.3173 31.1916 11.4829 31.1916C11.6485 31.1916 11.7893 31.1338 11.9052 31.0181C12.0211 30.9025 12.0791 30.7621 12.0791 30.597C12.0791 30.4318 12.0211 30.2914 11.9052 30.1758C11.7893 30.0437 11.6485 29.9776 11.4829 29.9776Z" fill="#2D3A4A" stroke="#2D3A4A" stroke-width="0.2" stroke-miterlimit="10"/>
<path d="M63.0279 27.4258H61.2145H61.0406H59.6247H59.426H58.01H57.8361H56.3954H56.2215H54.8055H54.6068H53.1909H53.017H51.5762H51.4023H49.9864H49.7877H48.3717H48.1979H46.7571H46.5832H45.1672H44.9685H43.5526H43.3787H41.9379H41.764H40.3481H40.1494H38.7334H38.5347H37.1188H36.9449H35.529H35.3302H33.9143H33.7156H32.2996H32.1257H30.685H30.5111H29.0951H28.8964H27.4805H27.3066H25.8658H25.6919H24.276H24.0773H22.6613H22.4874H21.0467H20.8728H19.4568H19.2581H17.8422H17.6683H16.2275H16.0536H14.6377H14.439H14.3644C14.0829 27.4258 13.8428 27.3845 13.6441 27.3019C13.4453 27.2193 13.288 27.112 13.1721 26.9798C13.0562 26.8312 12.9733 26.666 12.9237 26.4843C12.874 26.3027 12.8491 26.0962 12.8491 25.865V23.4866H11.8058V26.4348C11.8058 26.7321 11.7478 26.9716 11.6319 27.1533C11.516 27.335 11.3007 27.4258 10.9861 27.4258H10.0421H9.86822H9.71918C9.47077 27.4258 9.26376 27.4093 9.09815 27.3762C8.93255 27.3432 8.80007 27.2937 8.7007 27.2276C8.58478 27.1615 8.4937 27.0624 8.42746 26.9303C8.36122 26.7982 8.30323 26.633 8.25355 26.4348C8.18731 26.2036 8.10451 25.9558 8.00514 25.6916C7.90578 25.4273 7.78985 25.1465 7.65736 24.8492C7.4752 24.9318 7.30959 25.0226 7.16054 25.1217C7.02806 25.2043 6.86245 25.2952 6.66372 25.3943C6.89557 25.7907 7.06948 26.2201 7.18541 26.6826C7.31789 27.1285 7.38412 27.5497 7.38412 27.9461C7.38412 28.2599 7.32617 28.5654 7.21024 28.8627C7.11088 29.1435 6.95355 29.3995 6.73826 29.6307C6.50641 29.8455 6.22487 30.0189 5.89366 30.151C5.56245 30.2832 5.18156 30.3492 4.75098 30.3492C4.2376 30.3492 3.80704 30.2832 3.45926 30.151C3.12805 30.0024 2.85479 29.8207 2.6395 29.606C2.44077 29.3747 2.30002 29.127 2.21721 28.8627C2.13441 28.5985 2.09301 28.3425 2.09301 28.0947C2.09301 27.7974 2.13441 27.4919 2.21721 27.178C2.28346 26.8642 2.40766 26.5669 2.58983 26.2862L1.72039 25.7907C1.48855 26.121 1.31463 26.4843 1.19871 26.8807C1.06622 27.2937 1 27.6983 1 28.0947C1 28.4746 1.05795 28.8627 1.17387 29.2591C1.2898 29.6555 1.48853 30.0106 1.77006 30.3244C2.0516 30.6548 2.43248 30.919 2.91274 31.1172C3.37644 31.3154 3.96434 31.4145 4.67645 31.4145C5.10702 31.4145 5.52934 31.3485 5.94336 31.2163C6.37394 31.1007 6.7631 30.9025 7.11087 30.6217C7.45865 30.341 7.74846 29.9858 7.98031 29.5564C8.22872 29.1105 8.37778 28.5654 8.42746 27.9213C8.55994 28.1525 8.7421 28.3012 8.97395 28.3672C9.22236 28.4333 9.47077 28.4663 9.71918 28.4663H9.86822H10.0421H11.0854C11.251 28.4663 11.4166 28.4581 11.5822 28.4416C11.7313 28.4085 11.8804 28.359 12.0294 28.2929C12.1619 28.2268 12.2861 28.1277 12.402 27.9956C12.5179 27.8635 12.6256 27.6901 12.7249 27.4753C12.8243 27.8387 13.0148 28.0947 13.2963 28.2434C13.5778 28.392 13.9173 28.4663 14.3148 28.4663H14.439H14.6377H16.0536H16.2275H17.6683H17.8422H19.2581H19.4568H20.8728H21.0467H22.4874H22.6613H24.0773H24.276H25.6919H25.8658H27.3066H27.4805H28.8964H29.0951H30.5111H30.685H32.1257H32.2996H33.7156H33.9143H35.3302H35.529H36.9449H37.1188H38.5347H38.7334H40.1494H40.3481H41.764H41.9379H43.3787H43.5526H44.9685H45.1672H46.5832H46.7571H48.1979H48.3717H49.7877H49.9864H51.4023H51.5762H53.017H53.1909H54.6068H54.8055H56.2215H56.3954H57.8361H58.01H59.426H59.6247H61.0406H61.2145H64.0712V23.4866H63.0279V27.4258Z" fill="#2D3A4A" stroke="#2D3A4A" stroke-width="0.2" stroke-miterlimit="10"/>
<path d="M76.3921 23.4866V27.4258H74.6035H74.4048H74.3054C74.0073 27.4258 73.7672 27.3845 73.585 27.3019C73.4029 27.2193 73.2455 27.112 73.1131 26.9798C72.9971 26.8312 72.9143 26.666 72.8646 26.4843C72.815 26.3027 72.7901 26.0962 72.7901 25.865V19.0519H71.7468V26.4348C71.7468 26.7321 71.6971 26.9716 71.5978 27.1533C71.4984 27.3349 71.2831 27.4258 70.9519 27.4258H69.4366V21.678H68.3933V27.4258H65.5117V28.4663H71.0264C71.192 28.4663 71.3576 28.4581 71.5233 28.4415C71.6723 28.425 71.8213 28.3837 71.9704 28.3177C72.1029 28.2351 72.2271 28.1277 72.343 27.9956C72.4589 27.8635 72.5666 27.69 72.6659 27.4753C72.7322 27.6735 72.815 27.8304 72.9143 27.9461C73.0303 28.0782 73.1627 28.1855 73.3118 28.2681C73.4443 28.3507 73.5933 28.4085 73.7589 28.4415C73.9245 28.4581 74.0902 28.4663 74.2558 28.4663H74.4048H74.6035H77.4354V23.4866H76.3921Z" fill="#2D3A4A" stroke="#2D3A4A" stroke-width="0.2" stroke-miterlimit="10"/>
<path d="M76.8149 29.9776C76.6493 29.9776 76.5086 30.0437 76.3927 30.1758C76.2767 30.2914 76.2188 30.4318 76.2188 30.597C76.2188 30.7621 76.2767 30.9025 76.3927 31.0181C76.5086 31.1338 76.6493 31.1916 76.8149 31.1916C76.9805 31.1916 77.1213 31.1338 77.2373 31.0181C77.3697 30.9025 77.436 30.7621 77.436 30.597C77.436 30.4318 77.3697 30.2914 77.2373 30.1758C77.1213 30.0437 76.9805 29.9776 76.8149 29.9776Z" fill="#2D3A4A" stroke="#2D3A4A" stroke-width="0.2" stroke-miterlimit="10"/>
<path fill-rule="evenodd" clip-rule="evenodd" d="M89.086 23.5113C89.086 23.5113 89.0777 23.503 89.0611 23.4865C89.0114 23.4369 88.97 23.3791 88.9369 23.3131C88.9204 23.2305 88.9121 23.1562 88.9121 23.0901V9.90991C88.9121 9.82733 88.9204 9.753 88.9369 9.68694C88.9535 9.67042 88.9618 9.66216 88.9618 9.66216C88.9949 9.5961 89.0363 9.53829 89.086 9.48874L98.4262 0.173423C98.5256 0.0495488 98.6746 0 98.8485 0H112.039C112.213 0 112.362 0.0495488 112.486 0.173423L120.187 7.8536L121.802 9.48874H121.826C121.876 9.53829 121.909 9.5961 121.926 9.66216C121.942 9.66216 121.951 9.67042 121.951 9.68694C121.984 9.753 122 9.82733 122 9.90991V23.0901C122 23.1562 121.984 23.2305 121.951 23.3131C121.917 23.3791 121.876 23.4369 121.826 23.4865C121.826 23.503 121.826 23.5113 121.826 23.5113L112.486 32.8266C112.42 32.8761 112.354 32.9174 112.287 32.9504C112.205 32.9835 112.122 33 112.039 33H98.8485C98.7657 33 98.6911 32.9835 98.6249 32.9504C98.5421 32.9174 98.4759 32.8761 98.4262 32.8266L89.086 23.5113ZM120.758 10.8266L114.374 13.4775V19.5225L120.758 22.1734V10.8266ZM120.286 23.2883L113.902 20.6374L109.629 24.9234L112.263 31.2905L120.286 23.2883ZM98.6249 31.3153L101.258 24.9482L96.9606 20.6622L90.5764 23.2883L98.6249 31.3153ZM90.1293 22.1734L96.5134 19.5473V13.4775L90.1293 10.8514V22.1734ZM90.6013 9.71171L96.9854 12.3378L101.283 8.0518L98.6249 1.68469L90.6013 9.71171ZM113.182 19.6959V13.3288L108.661 8.81982H102.277L97.7555 13.3288V19.6959L102.277 24.205H108.661L113.182 19.6959ZM111.145 1.23874H99.7925L102.426 7.60585H108.512L111.145 1.23874ZM99.7676 31.786H111.145L108.487 25.4189H102.426L99.7676 31.786ZM120.286 9.71171L112.263 1.68469L109.605 8.0518L113.902 12.3378L120.286 9.71171Z" fill="url(#paint0_linear_1_2542)"/>
<path d="M8.9007 5.99187C8.8923 5.98475 8.88386 5.97767 8.87537 5.97061C8.58857 5.73225 8.25865 5.53688 7.88561 5.38452L8.14436 5.0818C8.50872 5.23995 8.83427 5.4377 9.12103 5.67504C9.13027 5.68268 9.13946 5.69036 9.14862 5.69809M8.9007 5.99187L9.14862 5.69809M8.9007 5.99187C9.67873 6.65141 10.0678 7.58576 10.0678 8.79494C10.0678 10.0223 9.67757 10.974 8.89722 11.65C8.89616 11.651 8.8951 11.6519 8.89405 11.6528C8.88785 11.6581 8.88162 11.6635 8.87537 11.6688L8.9007 5.99187ZM8.9007 5.99187L9.14862 5.69809M8.9007 5.99187L9.14862 5.69809M7.65798 5.29873C7.04457 5.08608 6.32461 4.97972 5.49808 4.97962L7.65798 5.29873Z" fill="#2D3A4A" stroke="#2D3A4A" stroke-width="90"/>
<mask id="path-11-inside-1_1_2542" fill="white">
<path d="M17.0723 4.608H17.4449V17.1193H23.2328V17.4909H17.0723V4.608Z"/>
</mask>
<path d="M17.0723 4.608H17.4449V17.1193H23.2328V17.4909H17.0723V4.608Z" fill="#2D3A4A"/>
<path d="M17.0723 4.608V-85.392H-72.9277V4.608H17.0723ZM17.4449 4.608H107.445V-85.392H17.4449V4.608ZM17.4449 17.1193H-72.5551V107.119H17.4449V17.1193ZM23.2328 17.1193H113.233V-72.8807H23.2328V17.1193ZM23.2328 17.4909V107.491H113.233V17.4909H23.2328ZM17.0723 17.4909H-72.9277V107.491H17.0723V17.4909ZM17.0723 94.608H17.4449V-85.392H17.0723V94.608ZM-72.5551 4.608V17.1193H107.445V4.608H-72.5551ZM17.4449 107.119H23.2328V-72.8807H17.4449V107.119ZM-66.7672 17.1193V17.4909H113.233V17.1193H-66.7672ZM23.2328 -72.5091H17.0723V107.491H23.2328V-72.5091ZM107.072 17.4909V4.608H-72.9277V17.4909H107.072Z" fill="#2D3A4A" mask="url(#path-11-inside-1_1_2542)"/>
<mask id="path-13-inside-2_1_2542" fill="white">
<path fill-rule="evenodd" clip-rule="evenodd" d="M33.7657 4.608H34.188L40.1746 17.4909H39.7523L37.9389 13.5765H38.0135V13.2048H37.7651L33.9644 5.02917L30.2631 13.2048H29.9898V13.5765H30.0892L28.3007 17.4909H27.8535L33.7657 4.608ZM37.9141 13.5765L37.7402 13.2048H30.2382L30.0644 13.5765H37.9141Z"/>
</mask>
<path fill-rule="evenodd" clip-rule="evenodd" d="M33.7657 4.608H34.188L40.1746 17.4909H39.7523L37.9389 13.5765H38.0135V13.2048H37.7651L33.9644 5.02917L30.2631 13.2048H29.9898V13.5765H30.0892L28.3007 17.4909H27.8535L33.7657 4.608ZM37.9141 13.5765L37.7402 13.2048H30.2382L30.0644 13.5765H37.9141Z" fill="#2D3A4A"/>
<path d="M33.7657 4.608V-85.392H-23.9566L-48.0321 -32.9303L33.7657 4.608ZM34.188 4.608L115.806 -33.3198L91.6079 -85.392H34.188V4.608ZM40.1746 17.4909V107.491H181.241L121.793 -20.4369L40.1746 17.4909ZM39.7523 17.4909L-41.9103 55.3222L-17.7425 107.491H39.7523V17.4909ZM37.9389 13.5765V-76.4235H-102.943L-43.7237 51.4078L37.9389 13.5765ZM38.0135 13.5765V103.576H128.013V13.5765H38.0135ZM38.0135 13.2048H128.013V-76.7952H38.0135V13.2048ZM37.7651 13.2048L-43.8473 51.1445L-19.6457 103.205H37.7651V13.2048ZM33.9644 5.02917L115.577 -32.9105L32.8808 -210.798L-48.0248 -32.0892L33.9644 5.02917ZM30.2631 13.2048V103.205H88.3116L112.252 50.3232L30.2631 13.2048ZM29.9898 13.2048V-76.7952H-60.0102V13.2048H29.9898ZM29.9898 13.5765H-60.0102V103.576H29.9898V13.5765ZM30.0892 13.5765L111.949 50.9791L170.161 -76.4235H30.0892V13.5765ZM28.3007 17.4909V107.491H86.1283L110.161 54.8935L28.3007 17.4909ZM27.8535 17.4909L-53.9442 -20.0474L-112.474 107.491H27.8535V17.4909ZM37.9141 13.5765V103.576H179.387L119.433 -24.5645L37.9141 13.5765ZM37.7402 13.2048L119.259 -24.9361L94.9949 -76.7952H37.7402V13.2048ZM30.2382 13.2048V-76.7952H-27.0164L-51.2803 -24.9361L30.2382 13.2048ZM30.0644 13.5765L-51.4541 -24.5645L-111.409 103.576H30.0644V13.5765ZM33.7657 94.608H34.188V-85.392H33.7657V94.608ZM-47.4299 42.5358L-41.4433 55.4187L121.793 -20.4369L115.806 -33.3198L-47.4299 42.5358ZM40.1746 -72.5091H39.7523V107.491H40.1746V-72.5091ZM121.415 -20.3404L119.602 -24.2548L-43.7237 51.4078L-41.9103 55.3222L121.415 -20.3404ZM37.9389 103.576H38.0135V-76.4235H37.9389V103.576ZM128.013 13.5765V13.2048H-51.9865V13.5765H128.013ZM38.0135 -76.7952H37.7651V103.205H38.0135V-76.7952ZM119.377 -24.7348L115.577 -32.9105L-47.648 42.9689L-43.8473 51.1445L119.377 -24.7348ZM-48.0248 -32.0892L-51.7261 -23.9135L112.252 50.3232L115.954 42.1475L-48.0248 -32.0892ZM30.2631 -76.7952H29.9898V103.205H30.2631V-76.7952ZM-60.0102 13.2048V13.5765H119.99V13.2048H-60.0102ZM29.9898 103.576H30.0892V-76.4235H29.9898V103.576ZM-51.7707 -23.8262L-53.5592 -19.9118L110.161 54.8935L111.949 50.9791L-51.7707 -23.8262ZM28.3007 -72.5091H27.8535V107.491H28.3007V-72.5091ZM109.651 55.0292L115.563 42.1463L-48.0321 -32.9303L-53.9442 -20.0474L109.651 55.0292ZM119.433 -24.5645L119.259 -24.9361L-43.7783 51.3458L-43.6044 51.7174L119.433 -24.5645ZM37.7402 -76.7952H30.2382V103.205H37.7402V-76.7952ZM-51.2803 -24.9361L-51.4541 -24.5645L111.583 51.7174L111.757 51.3458L-51.2803 -24.9361ZM30.0644 103.576H37.9141V-76.4235H30.0644V103.576Z" fill="#2D3A4A" mask="url(#path-13-inside-2_1_2542)"/>
<mask id="path-15-inside-3_1_2542" fill="white">
<path d="M43.1816 4.608H52.4473V4.97962H48.0008V17.4909H47.6282V4.97962H43.1816V4.608Z"/>
</mask>
<path d="M43.1816 4.608H52.4473V4.97962H48.0008V17.4909H47.6282V4.97962H43.1816V4.608Z" fill="#2D3A4A"/>
<path d="M43.1816 4.608V-85.392H-46.8184V4.608H43.1816ZM52.4473 4.608H142.447V-85.392H52.4473V4.608ZM52.4473 4.97962V94.9796H142.447V4.97962H52.4473ZM48.0008 4.97962V-85.0204H-41.9992V4.97962H48.0008ZM48.0008 17.4909V107.491H138.001V17.4909H48.0008ZM47.6282 17.4909H-42.3718V107.491H47.6282V17.4909ZM47.6282 4.97962H137.628V-85.0204H47.6282V4.97962ZM43.1816 4.97962H-46.8184V94.9796H43.1816V4.97962ZM43.1816 94.608H52.4473V-85.392H43.1816V94.608ZM-37.5527 4.608V4.97962H142.447V4.608H-37.5527ZM52.4473 -85.0204H48.0008V94.9796H52.4473V-85.0204ZM-41.9992 4.97962V17.4909H138.001V4.97962H-41.9992ZM48.0008 -72.5091H47.6282V107.491H48.0008V-72.5091ZM137.628 17.4909V4.97962H-42.3718V17.4909H137.628ZM47.6282 -85.0204H43.1816V94.9796H47.6282V-85.0204ZM133.182 4.97962V4.608H-46.8184V4.97962H133.182Z" fill="#2D3A4A" mask="url(#path-15-inside-3_1_2542)"/>
<mask id="path-17-inside-4_1_2542" fill="white">
<path d="M58.7559 4.608H59.1285V17.4909H58.7559V4.608Z"/>
</mask>
<path d="M58.7559 4.608H59.1285V17.4909H58.7559V4.608Z" fill="#2D3A4A"/>
<path d="M58.7559 4.608V-85.392H-31.2441V4.608H58.7559ZM59.1285 4.608H149.128V-85.392H59.1285V4.608ZM59.1285 17.4909V107.491H149.128V17.4909H59.1285ZM58.7559 17.4909H-31.2441V107.491H58.7559V17.4909ZM58.7559 94.608H59.1285V-85.392H58.7559V94.608ZM-30.8715 4.608V17.4909H149.128V4.608H-30.8715ZM59.1285 -72.5091H58.7559V107.491H59.1285V-72.5091ZM148.756 17.4909V4.608H-31.2441V17.4909H148.756Z" fill="#2D3A4A" mask="url(#path-17-inside-4_1_2542)"/>
<mask id="path-19-inside-5_1_2542" fill="white">
<path d="M67.5488 4.608H68.1202L77.3361 17.2679L77.2368 17.2927V4.608H77.6094V17.4909H77.0381L67.8469 4.83097L67.9214 4.8062V17.4909H67.5488V4.608Z"/>
</mask>
<path d="M67.5488 4.608H68.1202L77.3361 17.2679L77.2368 17.2927V4.608H77.6094V17.4909H77.0381L67.8469 4.83097L67.9214 4.8062V17.4909H67.5488V4.608Z" fill="#2D3A4A"/>
<path d="M67.5488 4.608V-85.392H-22.4512V4.608H67.5488ZM68.1202 4.608L140.882 -48.3605L113.925 -85.392H68.1202V4.608ZM77.3361 17.2679L99.1158 104.593L228.7 72.2733L150.098 -35.7006L77.3361 17.2679ZM77.2368 17.2927H-12.7632V132.497L99.0165 104.618L77.2368 17.2927ZM77.2368 4.608V-85.392H-12.7632V4.608H77.2368ZM77.6094 4.608H167.609V-85.392H77.6094V4.608ZM77.6094 17.4909V107.491H167.609V17.4909H77.6094ZM77.0381 17.4909L4.20793 70.3659L31.1608 107.491H77.0381V17.4909ZM67.8469 4.83097L39.4573 -80.5741L-77.2178 -41.79L-4.98323 57.706L67.8469 4.83097ZM67.9214 4.8062H157.921V-119.953L39.5318 -80.5989L67.9214 4.8062ZM67.9214 17.4909V107.491H157.921V17.4909H67.9214ZM67.5488 17.4909H-22.4512V107.491H67.5488V17.4909ZM67.5488 94.608H68.1202V-85.392H67.5488V94.608ZM-4.64205 57.5765L4.57394 70.2364L150.098 -35.7006L140.882 -48.3605L-4.64205 57.5765ZM55.5564 -70.057L55.4571 -70.0322L99.0165 104.618L99.1158 104.593L55.5564 -70.057ZM167.237 17.2927V4.608H-12.7632V17.2927H167.237ZM77.2368 94.608H77.6094V-85.392H77.2368V94.608ZM-12.3906 4.608V17.4909H167.609V4.608H-12.3906ZM77.6094 -72.5091H77.0381V107.491H77.6094V-72.5091ZM149.868 -35.3842L140.677 -48.0441L-4.98323 57.706L4.20793 70.3659L149.868 -35.3842ZM96.2365 90.2361L96.3111 90.2113L39.5318 -80.5989L39.4573 -80.5741L96.2365 90.2361ZM-22.0786 4.8062V17.4909H157.921V4.8062H-22.0786ZM67.9214 -72.5091H67.5488V107.491H67.9214V-72.5091ZM157.549 17.4909V4.608H-22.4512V17.4909H157.549Z" fill="#2D3A4A" mask="url(#path-19-inside-5_1_2542)"/>
<defs>
<linearGradient id="paint0_linear_1_2542" x1="88.9009" y1="-0.00520357" x2="121.995" y2="-0.00520357" gradientUnits="userSpaceOnUse">
<stop offset="0.033" stop-color="#DBBA95"/>
<stop offset="1" stop-color="#B9926D"/>
</linearGradient>
</defs>
</svg>
