<?xml version="1.0" encoding="UTF-8"?>
<svg id="Layer_2" data-name="Layer 2" xmlns="http://www.w3.org/2000/svg" xmlns:xlink="http://www.w3.org/1999/xlink" viewBox="0 0 455.87 160.52">
  <defs>
    <style>
      .cls-1 {
        fill: #FFF;
      }

      .cls-2 {
        fill: url(#linear-gradient);
      }
    </style>
    <linearGradient id="linear-gradient" x1="295.36" y1="80.26" x2="455.87" y2="80.26" gradientUnits="userSpaceOnUse">
      <stop offset=".03" stop-color="#dbba95"/>
      <stop offset="1" stop-color="#b9926d"/>
    </linearGradient>
  </defs>
  <g id="Layer_1-2" data-name="Layer 1">
    <g>
      <path class="cls-2" d="m333.58,151.72l7.91,7.91h0s.01.02.01.02c.28.28.61.5.96.65.37.15.76.23,1.14.23,0,0,0,0,0,0h64s0,0,0,0c.38,0,.77-.07,1.14-.23.36-.15.69-.37.96-.65h.01s0-.02,0-.02l45.25-45.25s.03-.06.06-.09c.24-.25.45-.54.59-.88,0,0,0-.02,0-.03.14-.35.22-.72.22-1.11V48.25c0-.38-.08-.76-.22-1.11,0,0,0-.02,0-.03-.01-.03-.04-.05-.05-.07-.15-.33-.34-.63-.6-.89h-.01s0-.01,0-.02l-7.91-7.91-29.42-29.42-7.91-7.91s0,0,0,0h-.01c-.56-.57-1.31-.88-2.1-.88h-64.02c-.79,0-1.55.31-2.1.87h-.01s0,.02,0,.02l-45.25,45.25c-.26.26-.45.57-.6.9-.01.03-.03.04-.04.07,0,0,0,.02,0,.03-.14.35-.22.73-.22,1.11v64.02c0,.38.08.76.22,1.11,0,0,0,.02,0,.03.14.34.35.63.59.88.02.03.03.06.06.09l7.92,7.92,29.42,29.42Zm116.34-43.91l-30.96-12.83v-29.46l30.96-12.83v55.12Zm-41.25,44.47l-12.83-30.97,20.83-20.83,30.96,12.83-38.97,38.97Zm-105.08-38.97l30.96-12.83,20.83,20.83-12.83,30.97-38.97-38.97Zm-2.28-60.62l30.96,12.83v29.46l-30.96,12.83v-55.12Zm41.25-44.47l12.83,30.97-20.83,20.83-30.96-12.83,38.97-38.97Zm48.54,109.42h-30.97l-21.9-21.9v-30.98l21.9-21.9h30.97l21.9,21.9v30.98l-21.9,21.9Zm-.76-80.73h-29.46l-12.83-30.97h55.11l-12.83,30.97Zm-29.46,86.68h29.46l12.83,30.97h-55.11l12.83-30.97Zm55.79-63.57l-20.83-20.83,12.83-30.97,38.97,38.97-30.96,12.83Z"/>
      <g>
        <path class="cls-1" d="m241.6,48.71v.75h0v36.72c0,8.07-1.22,14.06-3.68,17.99-2.74,4.42-7.23,6.63-13.45,6.63h-2.33c-6.23,0-10.71-2.21-13.45-6.63-1.49-2.38-2.53-5.52-3.11-9.43-.27-1.78-.44-3.73-.52-5.83-.04-.88-.05-1.8-.05-2.74v-50.48c.19-3.44,1.47-6.43,3.84-8.99l-11.42-3.57v63.66c-.01.73-.04,1.45-.08,2.15-.11,2.08-.32,4.01-.63,5.8-1.2,7.05-3.93,11.75-8.17,14.09-2.85-1.58-4.72-4.62-5.6-9.12-.24-1.18-.4-2.47-.49-3.85-.07-.99-.11-2.04-.11-3.13v-43.97l-8.13,2.54c1.65,1.77,2.55,3.85,2.72,6.23v35.45c0,.55.01,1.09.03,1.61.07,1.86.27,3.56.6,5.12,1.07,5.07,3.5,8.56,7.29,10.47-1.68.41-3.4.61-5.16.61h-9.27v1.53h9.27c8.93,0,15.43-2.23,19.53-6.69.74-.82,1.41-1.74,2.03-2.76.61,1.11,1.33,2.09,2.15,2.95,3.85,4.25,10.01,6.43,18.49,6.51h2.82c7.4-.07,13.03-1.73,16.89-4.98.57-.48,1.1-.98,1.59-1.53,3.61-3.96,5.49-10.03,5.64-18.21,0-.36.01-.71.01-1.08v-25.35c.09-3.49,1.33-6.51,3.71-9.06l-10.95-3.43Z"/>
        <path class="cls-1" d="m150.87,87.92c-.16,7.2-1.39,12.62-3.66,16.27-2.74,4.42-7.23,6.63-13.45,6.63h-2.33c-6.22,0-10.71-2.21-13.45-6.63-2.45-3.93-3.68-9.93-3.68-17.99v-36.72h-.05v-2.71l-10.95,3.43c2.48,2.66,3.72,5.84,3.72,9.52v28.84c-.22,6.89-1.44,12.1-3.65,15.64-2.74,4.42-7.23,6.63-13.45,6.63h-2.33c-6.22,0-10.71-2.21-13.45-6.63-2.45-3.93-3.68-9.93-3.68-17.99v-26.22c.32-2.97,1.53-5.58,3.62-7.83l-10.95-3.43v50.38c-.18,7.08-1.38,12.42-3.6,16.02-.47.75-.99,1.44-1.56,2.07-.15.04-.3.06-.46.08v.09h.3c-2.78,2.97-6.69,4.45-11.73,4.45h-14.5c-9.91,0-17.58-3.44-23.03-10.32-4.58-5.81-6.88-12.78-6.88-20.88,0-10.07,4.13-18.3,12.4-24.69,3.03-2.25,6.59-3.38,10.69-3.38,3.52,0,6.55.92,9.09,2.76.73.58,1.37,1.21,1.9,1.91l.74.98-.12-.13-.49-.12c-.86,0-1.58.32-2.15.98-.7.62-1.04,1.38-1.04,2.28s.35,1.62,1.04,2.27c.58.61,1.33.92,2.27.92,1.43,0,2.36-.76,2.76-2.27.08-.53.13-1,.13-1.41,0-.82-.17-1.62-.49-2.4-.53-.9-1.17-1.74-1.91-2.52-1.93-2-4.2-3.34-6.81-3.99-1.68-.45-3.32-.68-4.91-.68-3.93,0-7.41.94-10.44,2.83-.82.58-1.6,1.15-2.33,1.72-7.98,6.47-11.97,14.82-11.97,25.06,0,9.21,2.76,16.83,8.29,22.84,5.98,6.47,13.74,9.7,23.27,9.7h14.74c7.83-.05,13.75-2.02,17.75-5.92,2.75-2.68,4.59-6.28,5.53-10.78.25.24.5.47.76.7,3.88,3.31,9.54,5,16.98,5.08h2.83c7.36-.07,12.98-1.72,16.85-4.95.59-.48,1.13-1,1.63-1.56.74-.82,1.41-1.74,2.03-2.76.61,1.02,1.29,1.94,2.03,2.76.48.53.99,1.03,1.55,1.49,3.87,3.27,9.52,4.95,16.94,5.01h2.83c7.37-.07,13-1.72,16.87-4.95.58-.48,1.12-1,1.62-1.55,3.46-3.8,5.33-9.54,5.62-17.21.03-.68.04-1.37.04-2.08v-25.92c.2-3.25,1.43-6.08,3.67-8.5l-10.94-3.43v39.2Z"/>
        <path class="cls-1" d="m155.02,36.92c0-1.55-.46-2.87-1.38-3.98-.92-1.1-2.16-1.66-3.7-1.66s-2.78.55-3.7,1.66c-.92,1.1-1.38,2.43-1.38,3.98l5.08,7.4,5.08-7.4Z"/>
        <path class="cls-1" d="m141.93,36.92c0-1.55-.46-2.87-1.38-3.98-.92-1.1-2.16-1.66-3.7-1.66s-2.78.55-3.7,1.66c-.92,1.1-1.38,2.43-1.38,3.98l5.08,7.4,5.08-7.4Z"/>
        <path class="cls-1" d="m53.2,45.29c0-1.55-.46-2.87-1.38-3.98-.92-1.1-2.16-1.66-3.7-1.66s-2.78.55-3.7,1.66c-.92,1.1-1.38,2.43-1.38,3.98l5.08,7.4,5.08-7.4Z"/>
        <path class="cls-1" d="m115.09,127.77c.57.22,1.2.33,1.88.33s1.32-.11,1.89-.33c.7-.28,1.31-.72,1.82-1.33.92-1.1,1.38-2.43,1.38-3.98l-5.09-7.41-5.08,7.41c0,1.55.46,2.87,1.38,3.98.51.61,1.11,1.05,1.82,1.33Z"/>
        <path class="cls-1" d="m231.22,126.45c.08.09.16.19.25.27.89.93,2.04,1.39,3.45,1.39,1.55,0,2.78-.55,3.7-1.66.93-1.1,1.39-2.43,1.39-3.98l-5.09-7.41-5.08,7.41c0,1.26.31,2.38.92,3.34.14.22.3.43.47.63Z"/>
        <path class="cls-1" d="m102,127.77c.57.22,1.2.33,1.88.33s1.32-.11,1.89-.33c.7-.28,1.31-.72,1.82-1.33.92-1.1,1.38-2.43,1.38-3.98l-5.09-7.41-5.08,7.41c0,1.55.46,2.87,1.38,3.98.51.61,1.11,1.05,1.82,1.33Z"/>
      </g>
    </g>
  </g>
</svg>
