<?xml version="1.0" encoding="UTF-8"?>
<svg id="Layer_2" data-name="Layer 2" xmlns="http://www.w3.org/2000/svg" xmlns:xlink="http://www.w3.org/1999/xlink" viewBox="0 0 478.64 160.52">
  <defs>
    <style>
      .cls-1 {
        fill: #2d3a4a;
      }

      .cls-2 {
        fill: url(#linear-gradient);
      }
    </style>
    <linearGradient id="linear-gradient" x1="0" y1="80.26" x2="160.51" y2="80.26" gradientUnits="userSpaceOnUse">
      <stop offset=".03" stop-color="#dbba95"/>
      <stop offset="1" stop-color="#dbba95"/>
    </linearGradient>
  </defs>
  <g id="Layer_1-2" data-name="Layer 1">
    <g>
      <g>
        <path class="cls-1" d="m265.18,58.37c0,4.56-1.06,8.29-3.17,11.2-2.11,2.9-4.77,5.31-7.96,7.21-3.19,1.91-6.64,3.5-10.32,4.79-3.69,1.29-7.13,2.59-10.32,3.92-3.19,1.33-5.85,2.86-7.96,4.6s-3.17,4.02-3.17,6.84v18.91c0,2.16.66,4.02,1.99,5.6l.37.25c1.33,1.49,2.99,2.36,4.98,2.61v.12h-24.13v-.12c1.82-.25,3.4-1.04,4.73-2.36l.75-.75c1.24-1.49,1.87-3.23,1.87-5.22V47.67c-.17-1.91-.93-3.55-2.3-4.91-1.37-1.37-3.05-2.22-5.04-2.55v-.25h35.58c2.82,0,5.66.39,8.52,1.18,2.86.79,5.45,1.95,7.77,3.48,2.32,1.54,4.21,3.46,5.66,5.78,1.45,2.32,2.18,4.98,2.18,7.96Zm-42.92-16.79v50.38c1.08-1.99,2.69-3.67,4.85-5.04,2.16-1.37,4.52-2.65,7.09-3.86,2.57-1.2,5.18-2.44,7.84-3.73,2.65-1.28,5.08-2.84,7.28-4.66,2.2-1.82,4-4.06,5.41-6.72,1.41-2.65,2.11-5.97,2.11-9.95,0-2.57-.46-4.87-1.37-6.9-.91-2.03-2.18-3.75-3.79-5.16-1.62-1.41-3.55-2.49-5.78-3.23-2.24-.75-4.65-1.12-7.21-1.12h-16.42Z"/>
        <path class="cls-1" d="m291.8,124.54h-24.13v-.12c1.99-.25,3.65-1.12,4.98-2.61l.37-.37c1.33-1.57,1.99-3.44,1.99-5.6V51.77c0-4.81-1.62-8.96-4.85-12.44l14.31-4.48v81.11c0,2.07.66,3.9,1.99,5.47l.5.5c1.24,1.41,2.86,2.24,4.85,2.49v.12Z"/>
        <path class="cls-1" d="m341.56,124.54v-20.9l.12-10.57v.37c-2.4,6.22-4.89,11.4-7.46,15.55-2.57,4.15-5.06,7.46-7.46,9.95-2.41,2.49-4.69,4.23-6.84,5.23-2.16.99-4.06,1.49-5.72,1.49-4.4,0-8.11-.91-11.13-2.74-3.03-1.82-5.35-4.06-6.97-6.72-1.62-2.65-2.49-5.54-2.61-8.65-.12-3.11.48-5.95,1.8-8.52,1.66-3.15,3.61-5.62,5.85-7.4,2.24-1.78,4.68-3.13,7.34-4.04,2.65-.91,5.41-1.51,8.27-1.8,2.86-.29,5.74-.58,8.65-.87,2.9-.29,5.74-.7,8.52-1.24,2.78-.54,5.41-1.51,7.9-2.92,0-3.65-.58-6.88-1.74-9.7-1.16-2.82-2.99-4.64-5.47-5.47-2.49-.83-5.14-1.1-7.96-.81-2.82.29-5.6.85-8.33,1.68-2.74.83-5.37,1.83-7.9,2.99-2.53,1.16-4.75,2.24-6.66,3.23l-10.45-7.46c2.57-1,5.93-2.01,10.08-3.05,4.15-1.04,8.96-1.64,14.43-1.8,2.07-.17,4.1-.08,6.1.25,1.99.33,3.94.83,5.85,1.49,3.65,1.33,7.05,3.07,10.2,5.23,1.66,1.08,3.13,2.28,4.39,3.61,1.26,1.33,2.35,2.78,3.28,4.35.93,1.66,1.72,3.34,2.4,5.04.67,1.7,1.01,3.42,1.01,5.16v26.62c0,1.16.06,2.07.19,2.74.12.66.37,1.24.75,1.74.37.5.87.98,1.49,1.43.62.46,1.43.98,2.43,1.55l-14.31,4.98Zm.12-41.67c-3.32,1.41-6.47,2.26-9.45,2.55-2.99.29-5.87.54-8.65.75-2.78.21-5.52.62-8.21,1.24-2.7.62-5.41,1.97-8.15,4.04-1.41,1.08-2.53,2.51-3.36,4.29-.83,1.78-1.37,3.69-1.62,5.72-.25,2.03-.25,4.09,0,6.16.25,2.07.79,3.94,1.62,5.6.83,1.66,1.91,2.99,3.23,3.98,1.33,1,2.9,1.45,4.73,1.37,4.31-.25,8.04-1.37,11.2-3.36,3.15-1.99,5.8-4.23,7.96-6.72,2.16-2.49,3.86-4.91,5.1-7.28,1.24-2.36,2.11-4.04,2.61-5.04,1.99-3.98,2.99-7.5,2.99-10.57v-2.74Z"/>
        <path class="cls-1" d="m386.96,118.08c-1,1.41-2.2,2.65-3.61,3.73-1.16.91-2.61,1.76-4.35,2.55-1.74.79-3.73,1.18-5.97,1.18-3.57,0-6.26-1.2-8.09-3.61-1.83-2.4-2.82-5.6-2.99-9.58h-.12v-48.14h-6.72v-2.36c2.4,0,4.52-.6,6.34-1.8,1.82-1.2,3.36-2.65,4.6-4.35,1.24-1.7,2.2-3.48,2.86-5.35.66-1.87,1-3.42,1-4.67h1.37v16.17h13.19v2.36h-13.19v47.52c0,3.48.7,5.89,2.11,7.21,1.41,1.33,3.19,1.99,5.35,1.99,1.24,0,2.36-.17,3.36-.5,1-.33,1.82-.7,2.49-1.12.83-.5,1.53-1.08,2.11-1.74l.25.5Z"/>
        <path class="cls-1" d="m413.83,124.54h-24.01v-.12c1.99-.25,3.65-1.12,4.98-2.61l.37-.37c1.33-1.57,1.99-3.44,1.99-5.6v-37.57c0-4.81-1.62-8.96-4.85-12.44l14.18-3.86v53.99c0,2.07.66,3.9,1.99,5.47l.5.5c1.24,1.41,2.86,2.24,4.85,2.49v.12Zm-12.94-70.9l-5.72-8.33c0-1.74.52-3.23,1.55-4.48,1.04-1.24,2.43-1.87,4.17-1.87s3.13.62,4.17,1.87c1.04,1.24,1.55,2.74,1.55,4.48l-5.72,8.33Z"/>
        <path class="cls-1" d="m478.64,124.54h-24.18v-.12c1.97-.25,3.57-1.08,4.8-2.49l.49-.5c1.31-1.57,1.97-3.44,1.97-5.6v-22.76c-.08-3.81-.21-7.57-.37-11.26-.17-3.69-.66-6.97-1.49-9.83-.83-2.86-2.1-5.16-3.79-6.9-1.7-1.74-4.09-2.61-7.15-2.61-3.23,0-5.97.95-8.21,2.86-2.24,1.91-4.09,4.23-5.54,6.97-1.45,2.74-2.49,5.56-3.11,8.46-.62,2.9-.93,5.35-.93,7.34v27.86c0,2.07.67,3.9,2,5.47l.5.5c1.25,1.41,2.88,2.24,4.88,2.49v.12h-21.69.12-2.61v-.12c2.07-.25,3.73-1.08,4.98-2.49l.37-.5c1.33-1.57,1.99-3.44,1.99-5.6v-37.57c0-2.32-.39-4.56-1.18-6.72-.79-2.16-2.01-4.06-3.67-5.72l14.31-3.86.02,14.43c.58-1.57,1.37-3.25,2.37-5.04,1-1.78,2.22-3.44,3.68-4.98,1.45-1.53,3.2-2.8,5.24-3.79,2.04-1,4.43-1.49,7.17-1.49,4.74,0,8.5.79,11.28,2.36,2.79,1.58,4.93,3.69,6.42,6.34,1.5,2.65,2.49,5.68,2.99,9.08.5,3.4.79,6.97.87,10.7v26.37c.08,2.07.79,3.9,2.11,5.47l.37.5c1.24,1.41,2.9,2.24,4.98,2.49v.12Z"/>
      </g>
      <path class="cls-2" d="m38.22,151.72l7.91,7.91h0s.01.02.01.02c.28.28.61.5.96.65.37.15.76.23,1.14.23,0,0,0,0,0,0h64s0,0,0,0c.38,0,.77-.07,1.14-.23.36-.15.69-.37.96-.65h.01s0-.02,0-.02l45.25-45.25s.03-.06.06-.09c.24-.25.45-.54.59-.88,0,0,0-.02,0-.03.14-.35.22-.72.22-1.11V48.25c0-.38-.08-.76-.22-1.11,0,0,0-.02,0-.03-.01-.03-.04-.05-.05-.07-.15-.33-.34-.63-.6-.89h-.01s0-.01,0-.02l-7.91-7.91-29.42-29.42-7.91-7.91s0,0,0,0h-.01c-.56-.57-1.31-.88-2.1-.88H48.25c-.79,0-1.55.31-2.1.87h-.01s0,.02,0,.02L.87,46.14c-.26.26-.45.57-.6.9-.01.03-.03.04-.04.07,0,0,0,.02,0,.03-.14.35-.22.73-.22,1.11v64.02c0,.38.08.76.22,1.11,0,0,0,.02,0,.03.14.34.35.63.59.88.02.03.03.06.06.09l7.92,7.92,29.42,29.42Zm116.34-43.91l-30.96-12.83v-29.46l30.96-12.83v55.12Zm-41.25,44.47l-12.83-30.97,20.83-20.83,30.96,12.83-38.97,38.97ZM8.23,113.32l30.96-12.83,20.83,20.83-12.83,30.97L8.23,113.32Zm-2.28-60.62l30.96,12.83v29.46l-30.96,12.83v-55.12ZM47.2,8.23l12.83,30.97-20.83,20.83-30.96-12.83L47.2,8.23Zm48.54,109.42h-30.97l-21.9-21.9v-30.98l21.9-21.9h30.97l21.9,21.9v30.98l-21.9,21.9Zm-.76-80.73h-29.46l-12.83-30.97h55.11l-12.83,30.97Zm-29.46,86.68h29.46l12.83,30.97h-55.11l12.83-30.97Zm55.79-63.57l-20.83-20.83,12.83-30.97,38.97,38.97-30.96,12.83Z"/>
    </g>
  </g>
</svg>
