<?xml version="1.0" encoding="UTF-8"?>
<svg id="Layer_2" data-name="Layer 2" xmlns="http://www.w3.org/2000/svg" xmlns:xlink="http://www.w3.org/1999/xlink" viewBox="0 0 258.42 292.76">
  <defs>
    <style>
      .cls-1 {
        fill: #2d3a4a;
      }

      .cls-2 {
        fill: url(#linear-gradient);
      }
    </style>
    <linearGradient id="linear-gradient" x1="56.74" y1="72.47" x2="201.68" y2="72.47" gradientUnits="userSpaceOnUse">
      <stop offset=".03" stop-color="#dbba95"/>
      <stop offset="1" stop-color="#b9926d"/>
    </linearGradient>
  </defs>
  <g id="Layer_1-2" data-name="Layer 1">
    <g>
      <path class="cls-2" d="m91.25,137.01l7.14,7.14h0s.01.01.01.01c.25.25.55.45.87.58.34.14.68.21,1.03.21,0,0,0,0,0,0h57.79s0,0,0,0c.34,0,.69-.07,1.03-.21.32-.13.62-.33.87-.58h.01s0-.01,0-.01l40.87-40.87s.03-.05.05-.08c.21-.23.4-.49.53-.79,0,0,0-.02,0-.03.13-.32.2-.65.2-1v-57.81c0-.35-.07-.69-.2-1,0,0,0-.02,0-.03-.01-.03-.03-.04-.04-.07-.13-.29-.31-.57-.54-.81h-.01s0-.01,0-.01l-7.14-7.14-26.57-26.57-7.14-7.14s0,0,0,0h-.01c-.5-.52-1.19-.8-1.9-.8h-57.81c-.71,0-1.4.28-1.9.79h-.01s0,.01,0,.01l-40.87,40.87c-.23.23-.41.51-.54.81-.01.02-.03.04-.04.06,0,0,0,.02,0,.03-.13.32-.2.66-.2,1v57.81c0,.35.07.69.2,1,0,0,0,.02,0,.03.13.31.32.56.53.79.02.02.03.05.05.08l7.15,7.15,26.57,26.57Zm105.06-39.65l-27.96-11.58v-26.61l27.96-11.58v49.77Zm-37.25,40.16l-11.58-27.96,18.81-18.81,27.96,11.58-35.19,35.19Zm-94.89-35.19l27.96-11.58,18.81,18.81-11.58,27.96-35.19-35.19Zm-2.06-54.74l27.96,11.58v26.61l-27.96,11.58v-49.77ZM99.36,7.43l11.58,27.96-18.81,18.81-27.96-11.58L99.36,7.43Zm43.83,98.81h-27.97l-19.78-19.78v-27.97l19.78-19.78h27.97l19.78,19.78v27.97l-19.78,19.78Zm-.68-72.9h-26.6l-11.58-27.96h49.77l-11.58,27.96Zm-26.6,78.28h26.6l11.58,27.96h-49.77l11.58-27.96Zm50.38-57.41l-18.81-18.81,11.58-27.96,35.19,35.19-27.96,11.58Z"/>
      <g>
        <path class="cls-1" d="m247.22,211.52v.77h0v37.58c0,8.25-1.25,14.39-3.77,18.41-2.81,4.53-7.4,6.79-13.76,6.79h-2.39c-6.37,0-10.96-2.26-13.76-6.79-1.53-2.44-2.59-5.65-3.19-9.65-.27-1.83-.45-3.81-.53-5.97-.04-.91-.05-1.84-.05-2.8v-51.65c.2-3.52,1.5-6.58,3.93-9.2l-11.69-3.66v65.14c-.01.75-.04,1.48-.08,2.2-.11,2.13-.33,4.11-.64,5.93-1.23,7.22-4.02,12.02-8.37,14.42-2.91-1.62-4.83-4.72-5.73-9.33-.24-1.21-.41-2.52-.5-3.94-.08-1.01-.11-2.08-.11-3.2v-45l-8.32,2.6c1.69,1.82,2.61,3.94,2.78,6.37v36.27c0,.56.01,1.11.03,1.65.07,1.9.28,3.65.62,5.24,1.1,5.18,3.58,8.76,7.46,10.71-1.72.42-3.48.63-5.28.63h-9.49v1.57h9.49c9.14,0,15.79-2.28,19.99-6.85.76-.84,1.45-1.78,2.07-2.83.63,1.14,1.36,2.14,2.2,3.02,3.94,4.35,10.24,6.58,18.92,6.66h2.89c7.57-.07,13.33-1.77,17.29-5.09.58-.49,1.12-1.01,1.63-1.56,3.7-4.05,5.62-10.27,5.77-18.63,0-.36.01-.73.01-1.1v-25.94c.1-3.57,1.37-6.66,3.79-9.28l-11.2-3.51Z"/>
        <path class="cls-1" d="m154.38,251.64c-.17,7.37-1.42,12.92-3.75,16.64-2.81,4.53-7.4,6.79-13.76,6.79h-2.39c-6.37,0-10.96-2.26-13.76-6.79-2.51-4.02-3.77-10.16-3.77-18.41v-37.58h-.05v-2.77l-11.2,3.51c2.53,2.73,3.8,5.98,3.8,9.74v29.51c-.22,7.05-1.47,12.38-3.73,16-2.81,4.53-7.4,6.79-13.76,6.79h-2.39c-6.37,0-10.96-2.26-13.76-6.79-2.51-4.02-3.77-10.16-3.77-18.41v-26.82c.33-3.04,1.56-5.71,3.7-8.02l-11.2-3.51v51.55c-.19,7.25-1.41,12.71-3.68,16.39-.48.77-1.01,1.48-1.6,2.12-.15.04-.31.06-.47.08v.1h.31c-2.84,3.04-6.84,4.55-12,4.55h-14.83c-10.14,0-17.99-3.52-23.56-10.56-4.69-5.95-7.04-13.07-7.04-21.36,0-10.31,4.23-18.73,12.69-25.27,3.1-2.3,6.75-3.45,10.94-3.45,3.6,0,6.7.94,9.3,2.83.75.59,1.4,1.24,1.94,1.95l.76,1.01-.12-.13-.5-.12c-.88,0-1.61.33-2.2,1-.71.63-1.07,1.41-1.07,2.33s.35,1.65,1.07,2.32c.59.63,1.36.94,2.32.94,1.47,0,2.41-.78,2.83-2.32.09-.55.13-1.03.13-1.45,0-.84-.17-1.65-.5-2.45-.55-.92-1.19-1.78-1.95-2.58-1.97-2.05-4.29-3.42-6.97-4.09-1.72-.46-3.4-.69-5.03-.69-4.02,0-7.58.96-10.68,2.89-.84.59-1.63,1.17-2.39,1.76-8.17,6.62-12.25,15.17-12.25,25.64,0,9.43,2.83,17.22,8.48,23.38,6.12,6.62,14.06,9.93,23.82,9.93h15.09c8.02-.05,14.07-2.07,18.16-6.06,2.82-2.75,4.7-6.42,5.66-11.03.25.25.51.48.78.71,3.97,3.38,9.76,5.12,17.38,5.19h2.89c7.54-.07,13.28-1.76,17.24-5.06.6-.49,1.16-1.03,1.67-1.6.76-.84,1.45-1.78,2.07-2.83.63,1.04,1.32,1.99,2.07,2.83.49.54,1.02,1.05,1.59,1.53,3.96,3.35,9.74,5.06,17.33,5.13h2.89c7.55-.07,13.3-1.76,17.26-5.07.59-.49,1.15-1.02,1.65-1.59,3.54-3.89,5.46-9.76,5.75-17.61.03-.69.04-1.4.04-2.13v-26.52c.21-3.33,1.46-6.22,3.76-8.7l-11.2-3.51v40.12Z"/>
        <path class="cls-1" d="m158.63,199.46c0-1.58-.47-2.94-1.41-4.07-.94-1.13-2.21-1.7-3.79-1.7s-2.85.57-3.79,1.7c-.94,1.13-1.41,2.49-1.41,4.07l5.2,7.58,5.2-7.58Z"/>
        <path class="cls-1" d="m145.23,199.46c0-1.58-.47-2.94-1.41-4.07-.94-1.13-2.21-1.7-3.79-1.7s-2.85.57-3.79,1.7c-.94,1.13-1.41,2.49-1.41,4.07l5.2,7.58,5.2-7.58Z"/>
        <path class="cls-1" d="m54.44,208.02c0-1.58-.47-2.94-1.41-4.07-.94-1.13-2.21-1.7-3.79-1.7s-2.85.57-3.79,1.7c-.94,1.13-1.41,2.49-1.41,4.07l5.2,7.58,5.2-7.58Z"/>
        <path class="cls-1" d="m117.77,292.43c.58.22,1.23.34,1.93.34s1.35-.11,1.93-.34c.72-.28,1.34-.73,1.86-1.36.94-1.13,1.41-2.48,1.41-4.07l-5.21-7.58-5.2,7.58c0,1.59.47,2.94,1.41,4.07.52.63,1.14,1.08,1.86,1.36Z"/>
        <path class="cls-1" d="m236.6,291.07c.08.1.17.19.25.28.91.95,2.09,1.42,3.53,1.42,1.59,0,2.85-.57,3.79-1.7.95-1.13,1.42-2.48,1.42-4.07l-5.21-7.58-5.2,7.58c0,1.29.32,2.43.94,3.42.14.22.31.44.48.65Z"/>
        <path class="cls-1" d="m104.37,292.43c.58.22,1.23.34,1.93.34s1.35-.11,1.93-.34c.72-.28,1.34-.73,1.86-1.36.94-1.13,1.41-2.48,1.41-4.07l-5.21-7.58-5.2,7.58c0,1.59.47,2.94,1.41,4.07.52.63,1.14,1.08,1.86,1.36Z"/>
      </g>
    </g>
  </g>
</svg>