<?xml version="1.0" encoding="UTF-8"?>
<svg id="Layer_2" data-name="Layer 2" xmlns="http://www.w3.org/2000/svg" xmlns:xlink="http://www.w3.org/1999/xlink" viewBox="0 0 274.35 277.16">
  <defs>
    <style>
      .cls-1 {
        fill: #2d3a4a;
      }

      .cls-2 {
        fill: url(#linear-gradient);
      }
    </style>
    <linearGradient id="linear-gradient" x1="64.7" y1="72.47" x2="209.65" y2="72.47" gradientUnits="userSpaceOnUse">
      <stop offset=".03" stop-color="#dbba95"/>
      <stop offset="1" stop-color="#dbba95"/>
    </linearGradient>
  </defs>
  <g id="Layer_1-2" data-name="Layer 1">
    <g>
      <g>
        <path class="cls-1" d="m59.97,209.57c0,4.58-1.06,8.33-3.19,11.24-2.12,2.92-4.79,5.33-8,7.25-3.21,1.92-6.66,3.52-10.37,4.81-3.71,1.29-7.16,2.6-10.37,3.94-3.21,1.33-5.87,2.87-8,4.62-2.12,1.75-3.19,4.04-3.19,6.87v18.99c0,2.17.67,4.04,2,5.62l.37.25c1.33,1.5,3,2.37,5,2.62v.12H0v-.12c1.83-.25,3.41-1.04,4.75-2.37l.75-.75c1.25-1.5,1.87-3.25,1.87-5.25v-68.59c-.17-1.91-.94-3.56-2.31-4.93-1.37-1.37-3.06-2.23-5.06-2.56v-.25h35.73c2.83,0,5.68.4,8.56,1.19,2.87.79,5.48,1.96,7.81,3.5,2.33,1.54,4.23,3.48,5.68,5.81,1.46,2.33,2.19,5,2.19,8Zm-43.1-16.87v50.6c1.08-2,2.71-3.69,4.87-5.06,2.17-1.37,4.54-2.66,7.12-3.87,2.58-1.21,5.2-2.46,7.87-3.75,2.66-1.29,5.1-2.85,7.31-4.68,2.21-1.83,4.02-4.08,5.43-6.75,1.42-2.66,2.12-6,2.12-9.99,0-2.58-.46-4.89-1.37-6.93-.92-2.04-2.19-3.77-3.81-5.18-1.62-1.42-3.56-2.5-5.81-3.25-2.25-.75-4.67-1.12-7.25-1.12h-16.49Z"/>
        <path class="cls-1" d="m86.7,276.04h-24.24v-.12c2-.25,3.66-1.12,5-2.62l.37-.37c1.33-1.58,2-3.45,2-5.62v-64.34c0-4.83-1.62-8.99-4.87-12.49l14.37-4.5v81.46c0,2.08.67,3.92,2,5.5l.5.5c1.25,1.42,2.87,2.25,4.87,2.5v.12Z"/>
        <path class="cls-1" d="m136.68,276.04v-20.99l.13-10.62v.37c-2.41,6.25-4.91,11.45-7.49,15.62-2.58,4.17-5.08,7.5-7.5,9.99-2.42,2.5-4.71,4.25-6.87,5.25-2.17,1-4.08,1.5-5.75,1.5-4.42,0-8.14-.92-11.18-2.75-3.04-1.83-5.37-4.08-7-6.75-1.62-2.66-2.5-5.56-2.62-8.68-.12-3.12.48-5.97,1.81-8.56,1.67-3.16,3.62-5.64,5.87-7.43,2.25-1.79,4.7-3.14,7.37-4.06,2.66-.92,5.43-1.52,8.31-1.81,2.87-.29,5.77-.58,8.68-.87,2.91-.29,5.77-.71,8.56-1.25,2.79-.54,5.43-1.52,7.93-2.94,0-3.66-.58-6.91-1.75-9.74-1.17-2.83-3-4.66-5.5-5.5-2.5-.83-5.17-1.1-8-.81-2.83.29-5.62.86-8.37,1.69-2.75.83-5.39,1.83-7.93,3-2.54,1.17-4.77,2.25-6.68,3.25l-10.49-7.5c2.58-1,5.95-2.02,10.12-3.06,4.16-1.04,9-1.64,14.49-1.81,2.08-.17,4.12-.08,6.12.25,2,.33,3.95.83,5.87,1.5,3.66,1.33,7.08,3.08,10.24,5.25,1.67,1.08,3.14,2.29,4.41,3.62,1.27,1.33,2.36,2.79,3.29,4.37.93,1.67,1.73,3.35,2.41,5.06.68,1.71,1.01,3.44,1.01,5.18v26.74c0,1.17.06,2.08.19,2.75.12.67.37,1.25.75,1.75.37.5.87.98,1.5,1.44.62.46,1.44.98,2.44,1.56l-14.37,5Zm.13-41.85c-3.33,1.42-6.5,2.27-9.49,2.56-3,.29-5.89.54-8.68.75-2.79.21-5.54.63-8.25,1.25-2.71.62-5.43,1.98-8.18,4.06-1.42,1.08-2.54,2.52-3.37,4.31-.83,1.79-1.37,3.71-1.62,5.75-.25,2.04-.25,4.1,0,6.18.25,2.08.79,3.96,1.62,5.62.83,1.67,1.91,3,3.25,4,1.33,1,2.91,1.46,4.75,1.37,4.33-.25,8.08-1.37,11.24-3.37,3.16-2,5.83-4.25,8-6.75,2.16-2.5,3.87-4.94,5.12-7.31,1.25-2.37,2.12-4.06,2.62-5.06,2-4,3-7.54,3-10.62v-2.75Z"/>
        <path class="cls-1" d="m182.28,269.54c-1,1.42-2.21,2.67-3.62,3.75-1.17.92-2.62,1.77-4.37,2.56-1.75.79-3.75,1.19-6,1.19-3.58,0-6.29-1.21-8.12-3.62-1.83-2.41-2.83-5.62-3-9.62h-.12v-48.35h-6.75v-2.37c2.41,0,4.54-.6,6.37-1.81,1.83-1.21,3.37-2.66,4.62-4.37,1.25-1.71,2.21-3.5,2.87-5.37.67-1.87,1-3.44,1-4.69h1.37v16.24h13.24v2.37h-13.24v47.72c0,3.5.71,5.91,2.12,7.25,1.42,1.33,3.21,2,5.37,2,1.25,0,2.37-.17,3.37-.5,1-.33,1.83-.71,2.5-1.12.83-.5,1.54-1.08,2.12-1.75l.25.5Z"/>
        <path class="cls-1" d="m209.26,276.04h-24.11v-.12c2-.25,3.66-1.12,5-2.62l.37-.37c1.33-1.58,2-3.45,2-5.62v-37.73c0-4.83-1.62-8.99-4.87-12.49l14.24-3.87v54.22c0,2.08.67,3.92,2,5.5l.5.5c1.25,1.42,2.87,2.25,4.87,2.5v.12Zm-12.99-71.21l-5.75-8.37c0-1.75.52-3.25,1.56-4.5,1.04-1.25,2.44-1.87,4.19-1.87s3.14.63,4.19,1.87c1.04,1.25,1.56,2.75,1.56,4.5l-5.75,8.37Z"/>
        <path class="cls-1" d="m274.35,276.04h-24.28v-.12c1.98-.25,3.58-1.08,4.82-2.5l.49-.5c1.32-1.58,1.98-3.45,1.98-5.62v-22.86c-.08-3.83-.21-7.6-.37-11.31-.17-3.71-.67-7-1.5-9.87-.83-2.87-2.1-5.18-3.81-6.93-1.71-1.75-4.1-2.62-7.18-2.62-3.25,0-6,.96-8.25,2.87-2.25,1.92-4.1,4.25-5.56,7-1.46,2.75-2.5,5.58-3.12,8.5-.62,2.92-.94,5.37-.94,7.37v27.99c0,2.08.67,3.92,2.01,5.5l.5.5c1.26,1.42,2.89,2.25,4.9,2.5v.12h-21.78.12-2.62v-.12c2.08-.25,3.75-1.08,5-2.5l.37-.5c1.33-1.58,2-3.45,2-5.62v-37.73c0-2.33-.4-4.58-1.19-6.75-.79-2.16-2.02-4.08-3.69-5.75l14.37-3.87.02,14.49c.58-1.58,1.38-3.27,2.38-5.06,1-1.79,2.23-3.46,3.7-5,1.46-1.54,3.22-2.81,5.26-3.81,2.05-1,4.44-1.5,7.2-1.5,4.76,0,8.54.79,11.33,2.37,2.8,1.58,4.95,3.71,6.45,6.37,1.5,2.67,2.5,5.71,3.01,9.12.5,3.42.79,7,.88,10.74v26.49c.08,2.08.79,3.92,2.12,5.5l.37.5c1.25,1.42,2.91,2.25,5,2.5v.12Z"/>
      </g>
      <path class="cls-2" d="m99.21,137.01l7.14,7.14h0s.01.01.01.01c.25.25.55.45.87.58.34.14.68.21,1.03.21,0,0,0,0,0,0h57.79s0,0,0,0c.34,0,.69-.07,1.03-.21.32-.13.62-.33.87-.58h.01s0-.01,0-.01l40.87-40.87s.03-.05.05-.08c.21-.23.4-.49.53-.79,0,0,0-.02,0-.03.13-.32.2-.65.2-1v-57.81c0-.35-.07-.69-.2-1,0,0,0-.02,0-.03-.01-.03-.03-.04-.04-.07-.13-.29-.31-.57-.54-.81h-.01s0-.01,0-.01l-7.14-7.14-26.57-26.57-7.14-7.14s0,0,0,0h-.01c-.5-.52-1.19-.8-1.9-.8h-57.81c-.71,0-1.4.28-1.9.79h-.01s0,.01,0,.01l-40.87,40.87c-.23.23-.41.51-.54.81-.01.02-.03.04-.04.06,0,0,0,.02,0,.03-.13.32-.2.66-.2,1v57.81c0,.35.07.69.2,1,0,0,0,.02,0,.03.13.31.32.56.53.79.02.02.03.05.05.08l7.15,7.15,26.57,26.57Zm105.06-39.65l-27.96-11.58v-26.61l27.96-11.58v49.77Zm-37.25,40.16l-11.58-27.96,18.81-18.81,27.96,11.58-35.19,35.19Zm-94.89-35.19l27.96-11.58,18.81,18.81-11.58,27.96-35.19-35.19Zm-2.06-54.74l27.96,11.58v26.61l-27.96,11.58v-49.77ZM107.33,7.43l11.58,27.96-18.81,18.81-27.96-11.58L107.33,7.43Zm43.83,98.81h-27.97l-19.78-19.78v-27.97l19.78-19.78h27.97l19.78,19.78v27.97l-19.78,19.78Zm-.68-72.9h-26.6l-11.58-27.96h49.77l-11.58,27.96Zm-26.6,78.28h26.6l11.58,27.96h-49.77l11.58-27.96Zm50.38-57.41l-18.81-18.81,11.58-27.96,35.19,35.19-27.96,11.58Z"/>
    </g>
  </g>
</svg>