<svg width="213" height="147" viewBox="0 0 213 147" fill="none" xmlns="http://www.w3.org/2000/svg">
<path d="M102.807 146.894L103.869 146.287H101.776C102.11 146.499 102.443 146.681 102.777 146.894H102.807Z" fill="white"/>
<path d="M22.6526 69.6818C19.6491 69.6818 16.7973 69.1053 14.0971 67.9525C11.4273 66.7996 9.09126 65.2523 7.08891 63.25C5.08656 61.2476 3.50895 58.9115 2.35608 56.2417C1.17287 53.5719 0.596436 50.7201 0.596436 47.6862H13.2477C13.2477 48.9605 13.4904 50.1437 13.9758 51.2965C14.4612 52.4494 15.1287 53.4506 16.0085 54.2697C16.8883 55.1192 17.8895 55.7867 19.0423 56.2721C20.1952 56.7575 21.3784 57.0002 22.6526 57.0002C23.9269 57.0002 25.2011 56.7575 26.354 56.2721C27.5068 55.7867 28.4777 55.1192 29.3271 54.2697C30.1766 53.4202 30.8441 52.4191 31.3295 51.2965C31.8149 50.1437 32.0576 48.9605 32.0576 47.6862V0.752319H44.7089V47.6862C44.7089 50.6898 44.1324 53.5416 42.9795 56.2417C41.8267 58.9115 40.2794 61.2476 38.2771 63.25C36.2747 65.2523 33.9386 66.7996 31.2688 67.9525C28.599 69.1053 25.7169 69.6818 22.6223 69.6818H22.6526Z" fill="#2B7FFF"/>
<path d="M110.18 69.6818V0.782715H122.831V57.0306H136.392V69.6818H110.18Z" fill="#2B7FFF"/>
<path d="M143.279 69.6818V0.69165H155.931V69.6818H143.279Z" fill="#2B7FFF"/>
<path d="M164.971 69.6818V0.69165H177.622C182.386 0.69165 186.845 1.60181 191.002 3.39179C195.158 5.18177 198.799 7.66954 201.954 10.7944C205.079 13.9193 207.567 17.5903 209.357 21.777C211.177 25.9638 212.057 30.4539 212.057 35.217C212.057 39.9802 211.147 44.44 209.357 48.6571C207.536 52.8438 205.079 56.4845 201.954 59.6093C198.829 62.7039 195.158 65.1613 191.002 66.9816C186.845 68.8019 182.386 69.6818 177.622 69.6818H164.971ZM199.406 35.217C199.406 32.2135 198.829 29.3617 197.676 26.7222C196.523 24.0828 194.976 21.7467 193.034 19.7747C191.062 17.7723 188.757 16.225 186.117 15.0722C183.478 13.9193 180.626 13.3429 177.622 13.3429V57.0002C180.626 57.0002 183.478 56.4238 186.117 55.2709C188.757 54.118 191.062 52.5708 193.034 50.6291C195.006 48.6571 196.554 46.3513 197.676 43.7119C198.829 41.0724 199.406 38.2206 199.406 35.217Z" fill="#2B7FFF"/>
<path d="M30.8441 107.696V99.08C30.8441 93.1336 26.1416 88.5525 21.075 88.5525C16.0085 88.5525 17.5254 89.1593 15.1893 90.2514L11.8521 82.2724C15.1893 80.6341 18.1929 79.8149 20.8627 79.8149C32.2093 79.8149 39.0355 88.9772 39.0355 98.1698V107.666H44.7088V116.07H10.3655L12.7016 107.666H30.8744L30.8441 107.696Z" fill="#3238B7"/>
<path d="M64.2772 107.696V116.1H42.6458V107.696H64.2772Z" fill="#3238B7"/>
<path d="M83.8761 107.696V116.1H62.2446V107.696H83.8761Z" fill="#3238B7"/>
<path d="M103.475 107.696V116.1H81.8433V107.696H103.475Z" fill="#3238B7"/>
<path d="M113.031 101.204V88.8559L121.01 84.0624V100.324C121.01 103.6 120.677 105.178 119.979 107.696H130.142V116.1H101.412V107.696H106.326C110.695 107.696 113.031 105.451 113.031 101.204ZM103.869 120.651H110.908V127.538H103.869V120.651ZM113.153 120.651H120.191V127.538H113.153V120.651Z" fill="#3238B7"/>
<path d="M149.741 107.696V116.1H128.11V107.696H149.741Z" fill="#3238B7"/>
<path d="M156.719 101.204V74.5057L164.698 69.7122V100.294C164.698 102.69 164.425 104.875 163.879 106.725L163.606 107.696H171.039V116.1H147.678V107.696H150.014C154.383 107.696 156.719 105.451 156.719 101.204Z" fill="#3238B7"/>
<path d="M193.641 107.696V99.08C193.641 93.1336 188.939 88.5525 183.872 88.5525C178.806 88.5525 180.383 89.1593 178.078 90.2514L174.68 82.2724C178.017 80.6341 181.111 79.8149 183.69 79.8149C195.098 79.8149 201.863 88.9772 201.863 98.1698V116.07H169.037V107.666H193.672L193.641 107.696ZM180.323 120.651H187.361V127.538H180.323V120.651Z" fill="#3238B7"/>
<path d="M71.2856 49.2639L69.8293 56.3934L81.5097 63.25L54.2959 67.8615H48.5012L53.9318 56.9395L58.0882 59.1239L62.6997 47.929H68.9495L74.5925 33.3967L71.8013 46.8064L84.2402 51.2359L71.2856 49.2639Z" fill="#2B7FFF"/>
<path d="M107.449 69.075H101.442L98.2261 57.3036L92.6438 53.1776L85.7569 63.25L91.0359 51.4179L84.9681 38.6454L80.205 36.9161L75.3204 27.7538L68.0392 46.5638H61.8197L57.3903 57.243L53.3552 55.1193L46.3773 69.075H41.3108L74.3799 0.843384L107.449 69.075Z" fill="#3238B7"/>
<path d="M20.7718 123.108V126.749C20.7718 128.266 20.1347 129.055 18.8604 129.055H14.8557C12.3376 129.055 11.0938 127.78 11.0938 125.262V123.108H12.0039V125.262C12.0039 127.204 12.9444 128.144 14.7647 128.144H18.5571C19.4976 128.144 19.8616 127.78 19.8616 126.354V123.139H20.7718V123.108ZM15.6142 123.108H14.6737V121.986H15.6142V123.108ZM17.3132 123.108H16.3727V121.986H17.3132V123.108Z" fill="#2B7FFF"/>
<path d="M25.4134 129.024H24.3819C23.9268 129.024 23.5324 128.842 23.1987 128.539C22.8346 128.175 22.6526 127.659 22.6526 126.961V120.59H23.5931V126.415C23.5931 127.022 23.6841 127.447 23.8661 127.72C24.0178 127.932 24.2605 128.084 24.6246 128.114C24.7156 128.114 24.8066 128.114 25.4741 128.114V129.024H25.4134Z" fill="#2B7FFF"/>
<path d="M33.696 129.024H32.3915C31.6633 129.024 31.1779 129.024 30.9049 128.933C30.4195 128.842 29.9037 128.63 29.3576 128.296C28.8115 128.63 28.2654 128.842 27.78 128.933C27.5069 128.994 27.0215 129.024 26.2631 129.024H24.9585V128.114H27.0215C27.5069 128.114 27.962 128.023 28.3564 127.811C27.78 127.538 27.2946 127.143 26.9608 126.597C26.6575 126.081 26.5058 125.535 26.5058 124.959C26.5058 124.382 26.7485 123.594 27.2339 123.078C27.7497 122.532 28.4474 122.228 29.3273 122.228C30.2071 122.228 30.9049 122.501 31.451 123.078C31.906 123.594 32.1488 124.2 32.1488 124.959C32.1488 125.717 31.9971 126.081 31.6937 126.597C31.36 127.143 30.9049 127.538 30.2981 127.811C30.6925 128.023 31.1476 128.114 31.633 128.114H33.696V129.024ZM29.3576 127.265C29.934 127.022 30.3891 126.658 30.7228 126.203C31.0262 125.778 31.1779 125.323 31.1779 124.838C31.1779 124.352 31.0262 123.897 30.7228 123.594C30.3891 123.23 29.934 123.048 29.3576 123.048C28.2351 123.048 27.5373 123.836 27.5373 124.807C27.5373 125.778 27.689 125.748 27.9924 126.172C28.3261 126.658 28.7812 127.022 29.3879 127.265H29.3576ZM29.8127 121.136H28.8722V120.014H29.8127V121.136Z" fill="#2B7FFF"/>
<path d="M37.8827 129.024H33.3926V128.114H34.2421C34.7882 128.114 35.1826 127.932 35.3646 127.568C35.4859 127.325 35.5466 126.901 35.5466 126.294V123.078H36.4568V126.719C36.4568 127.265 36.3658 127.75 36.2141 128.114H37.913V129.024H37.8827ZM34.7275 131.027H33.787V129.904H34.7275V131.027ZM36.4264 131.027H35.4859V129.904H36.4264V131.027Z" fill="#2B7FFF"/>
<path d="M47.9552 129.024H37.1243V128.114H45.0427C45.0427 127.962 45.0427 127.811 45.0427 127.659C45.0427 126.658 44.8 125.839 44.3145 125.232C43.7684 124.534 42.919 124.17 41.7964 124.17H39.0963C39.5514 123.321 40.2188 122.137 41.0986 120.59H42.1908L40.6436 123.26H41.7964C43.101 123.26 44.1628 123.654 44.9516 124.473C45.7101 125.293 46.1045 126.354 46.1045 127.689V128.084H47.8945V128.994L47.9552 129.024Z" fill="#2B7FFF"/>
<path d="M55.8735 129.024H53.8711C53.3857 129.783 52.6576 130.147 51.6867 130.147C50.7159 130.147 49.9271 129.783 49.4417 129.024H47.5V128.114H49.0473C48.9866 127.841 48.9563 127.538 48.9563 127.204C48.9563 126.354 49.199 125.626 49.6844 125.08C50.1698 124.534 50.8676 124.231 51.7171 124.231C52.5666 124.231 53.234 124.504 53.7194 125.08C54.1745 125.626 54.4172 126.324 54.4172 127.174C54.4172 128.023 54.3869 127.811 54.2959 128.084H55.8735V128.994V129.024ZM53.325 127.113C53.325 126.536 53.2037 126.051 52.961 125.717C52.6879 125.293 52.2935 125.08 51.7171 125.08C51.1406 125.08 50.6856 125.323 50.3822 125.778C50.1395 126.142 50.0181 126.658 50.0181 127.295C50.0181 127.932 50.1395 128.357 50.3822 128.721C50.6856 129.146 51.1103 129.358 51.6867 129.358C52.7789 129.358 53.325 128.599 53.325 127.113Z" fill="#2B7FFF"/>
<path d="M58.6647 120.59V126.749C58.6647 128.266 58.0276 129.055 56.7534 129.055H55.6309V128.144H56.4803C57.0264 128.144 57.4208 127.962 57.6029 127.598C57.7242 127.356 57.7849 126.931 57.7849 126.354V120.62H58.6951L58.6647 120.59Z" fill="#2B7FFF"/>
<path d="M61.3042 129.024H60.394V120.59H61.3042V129.024Z" fill="#2B7FFF"/>
<path d="M72.1654 129.024H71.5586C70.2541 129.024 69.4349 128.387 69.0709 127.113C68.6765 127.78 68.009 128.114 67.0685 128.114C65.7336 128.114 64.7324 126.749 64.7324 125.02C64.7324 123.29 65.7336 121.864 67.2202 121.864H69.981V126.051C69.981 127.356 70.5878 128.114 71.6496 128.114H72.1351V129.024H72.1654ZM69.0709 124.868V122.562H67.4022C66.3707 122.562 65.6729 123.624 65.6729 124.989C65.6729 126.354 66.3707 127.416 67.3719 127.416C68.3731 127.416 69.0405 126.567 69.0405 124.868H69.0709ZM67.7056 120.924H66.7651V119.801H67.7056V120.924ZM69.4046 120.924H68.4641V119.801H69.4046V120.924Z" fill="#2B7FFF"/>
<path d="M74.987 123.108V126.749C74.987 128.266 74.3499 129.055 73.0756 129.055H71.9531V128.144H72.8026C73.3487 128.144 73.7431 127.962 73.9251 127.598C74.0465 127.356 74.1072 126.931 74.1072 126.354V123.139H75.0173L74.987 123.108ZM74.987 122.168H74.0465V121.045H74.987V122.168Z" fill="#2B7FFF"/>
<path d="M79.5982 129.024H78.5667C78.1116 129.024 77.7172 128.842 77.3835 128.539C77.0194 128.175 76.8374 127.659 76.8374 126.961V120.59H77.7779V126.415C77.7779 127.022 77.8689 127.447 78.0509 127.72C78.2026 127.932 78.4454 128.084 78.8094 128.114C78.9004 128.114 78.9915 128.114 79.6589 128.114V129.024H79.5982Z" fill="#2B7FFF"/>
<path d="M83.8761 129.024H79.386V128.114H80.2355C80.7816 128.114 81.176 127.932 81.358 127.568C81.4794 127.325 81.54 126.901 81.54 126.294V123.078H82.4502V126.719C82.4502 127.265 82.3592 127.75 82.2075 128.114H83.9064V129.024H83.8761ZM80.7512 131.027H79.8107V129.904H80.7512V131.027ZM82.4502 131.027H81.5097V129.904H82.4502V131.027Z" fill="#2B7FFF"/>
<path d="M96.0116 129.024H83.5728V128.114H84.7863C85.7268 128.114 86.1819 127.447 86.1819 126.081V123.745H87.092V125.899C87.092 125.99 87.092 126.081 87.092 126.172C88.0629 124.261 89.7012 123.139 91.1878 123.139C93.2811 123.139 94.3126 124.625 94.3126 127.568V128.175H96.0419V129.085L96.0116 129.024ZM93.3418 128.144C93.3418 127.871 93.3721 127.598 93.3721 127.325C93.3721 125.293 92.5227 123.958 91.0967 123.958C89.6708 123.958 87.4864 125.96 86.8797 128.144H93.3418Z" fill="#2B7FFF"/>
<path d="M98.8635 120.59V126.749C98.8635 128.266 98.2263 129.055 96.9521 129.055H95.8296V128.144H96.6791C97.2252 128.144 97.6196 127.962 97.8016 127.598C97.923 127.356 97.9836 126.931 97.9836 126.354V120.62H98.8938L98.8635 120.59Z" fill="#2B7FFF"/>
</svg>
