<svg width="80" height="22" viewBox="0 0 157 22" fill="none" xmlns="http://www.w3.org/2000/svg">
<path d="M15.2749 13.096H17.7709V16H14.9869C14.5069 16 13.9789 15.88 13.4029 15.64C13.0509 17.224 12.2269 18.472 10.9309 19.384C9.76291 20.184 8.37891 20.584 6.77891 20.584C4.50691 20.584 2.74691 19.832 1.49891 18.328C0.538906 17.176 0.0589063 15.808 0.0589063 14.224C0.0589063 12.976 0.346906 11.872 0.922906 10.912L3.89891 10.24C3.24291 11.28 2.91491 12.472 2.91491 13.816C2.91491 15 3.25891 15.936 3.94691 16.624C4.65091 17.328 5.59491 17.68 6.77891 17.68C7.94691 17.68 8.87491 17.352 9.56291 16.696C10.2509 16.04 10.5949 15.144 10.5949 14.008V2.128L13.5949 0.519999V11.368C13.5949 11.992 13.7229 12.44 13.9789 12.712C14.2349 12.968 14.6669 13.096 15.2749 13.096ZM24.8826 13.096H27.0426V16H24.5946C23.4266 16 22.4586 15.688 21.6906 15.064C20.9226 15.688 19.9546 16 18.7866 16H16.3386V13.096H18.4986C19.1066 13.096 19.5386 12.968 19.7946 12.712C20.0506 12.44 20.1786 11.992 20.1786 11.368V6.928L23.2026 5.344V11.368C23.2026 11.992 23.3306 12.44 23.5866 12.712C23.8426 12.968 24.2746 13.096 24.8826 13.096ZM18.6666 18.184C19.1466 18.184 19.5226 18.32 19.7946 18.592C20.0826 18.88 20.2266 19.264 20.2266 19.744C20.2266 20.816 19.7066 21.352 18.6666 21.352C18.1866 21.352 17.8026 21.208 17.5146 20.92C17.2266 20.632 17.0826 20.24 17.0826 19.744C17.0826 18.704 17.6106 18.184 18.6666 18.184ZM22.3626 18.184C22.8426 18.184 23.2186 18.32 23.4906 18.592C23.7786 18.88 23.9226 19.264 23.9226 19.744C23.9226 20.816 23.4026 21.352 22.3626 21.352C21.8826 21.352 21.4986 21.208 21.2106 20.92C20.9226 20.632 20.7786 20.24 20.7786 19.744C20.7786 18.704 21.3066 18.184 22.3626 18.184ZM33.6844 13.072C34.4524 10.736 35.5724 8.84 37.0444 7.384C38.6764 5.752 40.5484 4.936 42.6604 4.936C44.5484 4.936 46.0604 5.592 47.1964 6.904C48.1564 8.008 48.6364 9.376 48.6364 11.008V11.536C48.6364 12.992 48.1804 14.128 47.2684 14.944C46.4844 15.648 45.4684 16 44.2204 16H33.8524C32.6844 16 31.7164 15.688 30.9484 15.064C30.1804 15.688 29.2124 16 28.0444 16H25.5964V13.096H27.7564C28.3644 13.096 28.7964 12.968 29.0524 12.712C29.3084 12.44 29.4364 11.992 29.4364 11.368V8.2L32.4604 6.616V11.368C32.4604 12.392 32.8684 12.96 33.6844 13.072ZM45.6124 11.344V11.008C45.6124 10.048 45.3404 9.264 44.7964 8.656C44.2524 8.048 43.5484 7.744 42.6844 7.744C41.4364 7.744 40.2684 8.224 39.1804 9.184C38.1084 10.144 37.2604 11.448 36.6364 13.096H44.1004C44.6764 13.096 45.0684 12.976 45.2764 12.736C45.5004 12.48 45.6124 12.016 45.6124 11.344ZM63.7592 13.096V16H60.8072C60.6952 17.44 60.0552 18.592 58.8872 19.456C57.9272 20.16 56.8072 20.512 55.5272 20.512C54.5192 20.512 53.5352 20.24 52.5752 19.696V17.08C53.4392 17.576 54.3032 17.824 55.1672 17.824C55.8392 17.824 56.4312 17.64 56.9432 17.272C57.4712 16.904 57.7592 16.464 57.8072 15.952C57.6792 15.936 57.4792 15.92 57.2072 15.904C56.9352 15.872 56.7272 15.848 56.5832 15.832C54.9352 15.656 53.6632 15.008 52.7672 13.888C52.0152 12.944 51.6392 11.8 51.6392 10.456C51.6392 8.696 52.1192 7.304 53.0792 6.28C53.9272 5.384 55.0472 4.936 56.4392 4.936C57.8632 4.936 58.9752 5.392 59.7752 6.304C60.4632 7.088 60.8072 8.112 60.8072 9.376V13.096H63.7592ZM57.8072 9.328C57.8072 8.272 57.3512 7.744 56.4392 7.744C55.2232 7.744 54.6152 8.616 54.6152 10.36C54.6152 11.912 55.3192 12.776 56.7272 12.952C56.9512 13 57.3112 13.04 57.8072 13.072V9.328ZM64.603 3.232C64.123 3.232 63.739 3.088 63.451 2.8C63.163 2.512 63.019 2.12 63.019 1.624C63.019 1.16 63.163 0.783999 63.451 0.495999C63.739 0.207999 64.123 0.0639992 64.603 0.0639992C65.083 0.0639992 65.459 0.207999 65.731 0.495999C66.019 0.768 66.163 1.144 66.163 1.624C66.163 2.696 65.643 3.232 64.603 3.232ZM68.275 3.232C67.795 3.232 67.411 3.088 67.123 2.8C66.835 2.496 66.691 2.104 66.691 1.624C66.691 1.16 66.835 0.783999 67.123 0.495999C67.427 0.207999 67.811 0.0639992 68.275 0.0639992C68.755 0.0639992 69.131 0.207999 69.403 0.495999C69.691 0.768 69.835 1.144 69.835 1.624C69.835 2.696 69.315 3.232 68.275 3.232ZM70.867 13.096H73.027V16H70.579C69.411 16 68.443 15.688 67.675 15.064C66.907 15.688 65.939 16 64.771 16H62.323V13.096H64.483C65.091 13.096 65.523 12.968 65.779 12.712C66.035 12.44 66.163 11.992 66.163 11.368V6.928L69.187 5.344V11.368C69.187 11.992 69.315 12.44 69.571 12.712C69.827 12.968 70.259 13.096 70.867 13.096ZM79.8368 13.096H81.9968V16H79.5488C78.3008 16 77.2848 15.648 76.5008 14.944C75.6208 15.648 74.5408 16 73.2608 16H71.5808V13.096H73.0928C73.8288 13.096 74.3488 12.936 74.6528 12.616C74.9728 12.296 75.1328 11.752 75.1328 10.984V2.128L78.1328 0.519999V5.368L78.1568 5.344V11.368C78.1568 11.992 78.2848 12.44 78.5408 12.712C78.7968 12.968 79.2288 13.096 79.8368 13.096ZM80.5573 16V13.096H82.0693C82.8053 13.096 83.3253 12.936 83.6293 12.616C83.9493 12.296 84.1093 11.752 84.1093 10.984V2.128L87.1093 0.519999V11.008C87.1093 12.56 86.6373 13.8 85.6933 14.728C84.8293 15.576 83.6773 16 82.2373 16H80.5573ZM111.667 16C111.475 17.472 110.643 18.624 109.171 19.456C107.843 20.192 106.187 20.56 104.203 20.56C101.547 20.56 99.5472 19.8 98.2032 18.28C97.2112 17.144 96.7152 15.752 96.7152 14.104C96.7152 12.84 97.0112 11.736 97.6032 10.792L100.483 10.192C99.8432 11.28 99.5232 12.424 99.5232 13.624C99.5232 14.968 99.9232 16 100.723 16.72C101.523 17.456 102.683 17.824 104.203 17.824C106.571 17.824 108.011 17.216 108.523 16H106.219L107.731 13.096H111.739V16H111.667ZM116.63 3.232C116.15 3.232 115.766 3.088 115.478 2.8C115.19 2.512 115.046 2.12 115.046 1.624C115.046 0.583999 115.574 0.0639992 116.63 0.0639992C117.11 0.0639992 117.486 0.207999 117.758 0.495999C118.046 0.768 118.19 1.144 118.19 1.624C118.19 2.696 117.67 3.232 116.63 3.232ZM120.326 3.232C119.846 3.232 119.462 3.088 119.174 2.8C118.886 2.512 118.742 2.12 118.742 1.624C118.742 0.583999 119.27 0.0639992 120.326 0.0639992C120.806 0.0639992 121.182 0.207999 121.454 0.495999C121.742 0.768 121.886 1.144 121.886 1.624C121.886 2.696 121.366 3.232 120.326 3.232ZM110.51 16V13.096H114.35C113.87 12.392 113.63 11.512 113.63 10.456C113.63 8.696 114.11 7.304 115.07 6.28C115.934 5.384 117.062 4.936 118.454 4.936C119.878 4.936 120.982 5.392 121.766 6.304C122.47 7.088 122.822 8.112 122.822 9.376V11.536C122.806 12.912 122.398 14 121.598 14.8C120.814 15.6 119.75 16 118.406 16H110.51ZM119.798 9.328C119.798 8.272 119.35 7.744 118.454 7.744C117.222 7.744 116.606 8.616 116.606 10.36C116.606 12.184 117.198 13.096 118.382 13.096C119.326 13.096 119.798 12.584 119.798 11.56V9.328ZM126.914 16V2.128L129.938 0.519999V16H126.914ZM141.844 13.096H144.004V16H141.556C141.012 16 140.508 15.928 140.044 15.784C139.836 17.32 139.22 18.536 138.196 19.432C137.268 20.232 136.156 20.632 134.86 20.632C133.852 20.632 132.868 20.376 131.908 19.864V17.224C132.74 17.688 133.556 17.92 134.356 17.92C135.236 17.92 135.916 17.632 136.396 17.056C136.892 16.496 137.14 15.712 137.14 14.704V6.928L139.108 5.896L140.14 5.344V5.368L140.164 5.344V11.368C140.164 11.992 140.292 12.44 140.548 12.712C140.804 12.968 141.236 13.096 141.844 13.096ZM142.573 16V13.096H144.085C144.821 13.096 145.341 12.936 145.645 12.616C145.965 12.296 146.125 11.752 146.125 10.984V2.128L149.125 0.519999V11.008C149.125 12.56 148.653 13.8 147.709 14.728C146.845 15.576 145.693 16 144.253 16H142.573ZM153.445 16V2.128L156.469 0.519999V16H153.445Z" fill="#136387"/>
</svg>
