<svg width="30" height="30" viewBox="0 0 30 30" fill="none" xmlns="http://www.w3.org/2000/svg">
  <path d="M20.008 6.5009C19.9761 6.36982 19.8588 6.27783 19.724 6.27783H14.427H14.1896H8.89257C8.75768 6.27783 8.64044 6.36988 8.6085 6.5009C8.38532 7.41719 7.57087 10.9936 7.62407 14.1897C7.63286 14.7185 7.63286 15.2472 7.62407 15.7759C7.57087 18.9721 8.38532 22.5485 8.6085 23.4648C8.64044 23.5959 8.75768 23.6879 8.89257 23.6879H14.1896H14.427H19.724C19.8588 23.6879 19.9761 23.5958 20.008 23.4648C20.2312 22.5486 21.0457 18.9722 20.9925 15.776C20.9837 15.2472 20.9837 14.7185 20.9925 14.1897C21.0457 10.9936 20.2312 7.41719 20.008 6.5009Z" fill="#D4AF37"/>
  <path d="M17.3492 29.561H11.2675C11.106 29.561 10.9751 29.4301 10.9751 29.2686V22.8945H17.6416V29.2686C17.6415 29.4301 17.5106 29.561 17.3492 29.561Z" fill="#2C3E50"/>
  <path d="M21.4003 16.1468H20.9927V14.1899H21.4003C21.9407 14.1899 22.3787 14.628 22.3787 15.1684C22.3787 15.7088 21.9406 16.1468 21.4003 16.1468Z" fill="#A9CCE3"/>
  <path d="M20.9924 15.776C21.0454 18.9722 20.2309 22.5485 20.0077 23.4647C19.9758 23.5958 19.8586 23.6878 19.7237 23.6878H17.9146C17.9146 23.6878 19.0163 19.4772 18.9549 15.776C18.9461 15.2473 18.9461 14.7188 18.9549 14.1902C19.0163 10.489 17.9146 6.27832 17.9146 6.27832H19.7237C19.8586 6.27832 19.9758 6.37037 20.0077 6.50139C20.2309 7.41762 21.0454 10.9938 20.9924 14.1902C20.9836 14.7188 20.9836 15.2473 20.9924 15.776Z" fill="#2C3E50"/>
  <path d="M19.0472 14.983C19.0472 17.6002 16.9255 19.722 14.3083 19.722C12.1628 19.722 10.3503 18.2962 9.76662 16.3405C9.6383 15.9105 9.56934 15.4548 9.56934 14.9831C9.56934 12.3659 11.691 10.2441 14.3083 10.2441C16.9255 10.2441 19.0472 12.3658 19.0472 14.983Z" fill="#E8EAE9"/>
  <path d="M19.0473 14.9835C19.0473 17.6004 16.925 19.7221 14.308 19.7221C12.5168 19.7221 10.9571 18.728 10.1519 17.2613C10.9413 17.8508 11.9209 18.1993 12.9817 18.1993C15.5992 18.1993 17.7209 16.0777 17.7209 13.4607C17.7209 12.6343 17.5092 11.8571 17.1379 11.1812C18.2964 12.0455 19.0473 13.4268 19.0473 14.9835Z" fill="#D6D4D4"/>
  <path d="M17.6411 7.10541H10.9746V0.731348C10.9746 0.569863 11.1055 0.438965 11.267 0.438965H17.3487C17.5102 0.438965 17.6411 0.569863 17.6411 0.731348V7.10541H17.6411Z" fill="#2C3E50"/>
  <path d="M14.7468 17.6253V15.1901L17.0789 13.2741C17.2661 13.1203 17.2932 12.8439 17.1394 12.6568C16.9856 12.4696 16.7092 12.4425 16.5221 12.5963L14.0298 14.6439C13.9284 14.7272 13.8696 14.8516 13.8696 14.9828V17.6253C13.8696 17.8675 14.066 18.0638 14.3082 18.0638C14.5504 18.0638 14.7468 17.8675 14.7468 17.6253Z" fill="#2C2C2C"/>
  <path d="M14.3084 9.80518C11.4535 9.80518 9.13086 12.1278 9.13086 14.9827C9.13086 15.442 9.19115 15.8978 9.31004 16.3374C9.37326 16.5712 9.61402 16.7096 9.84793 16.6463C10.0818 16.5831 10.2201 16.3422 10.1568 16.1084C10.0581 15.7434 10.008 15.3647 10.008 14.9827C10.008 12.6115 11.9371 10.6824 14.3083 10.6824C16.6795 10.6824 18.6086 12.6115 18.6086 14.9827C18.6086 17.3539 16.6795 19.283 14.3083 19.283C13.394 19.283 12.521 19 11.7839 18.4645C11.5879 18.3221 11.3136 18.3656 11.1713 18.5616C11.0289 18.7576 11.0724 19.0319 11.2684 19.1742C12.1563 19.8192 13.2076 20.1602 14.3083 20.1602C17.1632 20.1602 19.4858 17.8375 19.4858 14.9827C19.4858 12.1278 17.1632 9.80518 14.3084 9.80518Z" fill="#2C2C2C"/>
  <path d="M12.2709 25.5269C12.1094 25.5269 11.9785 25.6578 11.9785 25.8192V27.2812C11.9785 27.4427 12.1094 27.5736 12.2709 27.5736C12.4324 27.5736 12.5633 27.4427 12.5633 27.2812V25.8192C12.5633 25.6578 12.4324 25.5269 12.2709 25.5269Z" fill="#2C2C2C"/>
  <path d="M16.3456 25.5269C16.1841 25.5269 16.0532 25.6578 16.0532 25.8192V27.2812C16.0532 27.4427 16.1841 27.5736 16.3456 27.5736C16.5071 27.5736 16.638 27.4427 16.638 27.2812V25.8192C16.638 25.6578 16.507 25.5269 16.3456 25.5269Z" fill="#2C2C2C"/>
</svg>
